<?xml version="1.0" standalone="no"?>
<!DOCTYPE svg PUBLIC "-//W3C//DTD SVG 20010904//EN"
 "http://www.w3.org/TR/2001/REC-SVG-20010904/DTD/svg10.dtd">
<svg version="1.0" xmlns="http://www.w3.org/2000/svg"
 width="159.000000pt" height="159.000000pt" viewBox="0 0 159.000000 159.000000"
 preserveAspectRatio="xMidYMid meet">
<metadata>
Created by potrace 1.11, written by Peter Selinger 2001-2013
</metadata>
<g transform="translate(0.000000,159.000000) scale(0.100000,-0.100000)"
fill="#000000" stroke="none">
<path d="M650 1531 c0 -4 17 -20 39 -34 46 -31 61 -79 34 -109 -16 -18 -17
-18 -40 3 -12 12 -25 30 -28 39 -3 9 -21 24 -40 33 -33 16 -38 16 -88 -4 -104
-40 -197 -83 -197 -91 0 -4 17 -8 38 -8 53 0 92 -41 85 -87 -3 -18 -8 -33 -12
-33 -3 0 -24 12 -46 25 -23 15 -55 25 -77 25 -33 0 -42 -7 -115 -91 -99 -115
-105 -124 -67 -115 80 18 89 18 109 -1 27 -24 31 -68 9 -90 -16 -16 -17 -16
-12 -2 5 14 -2 18 -38 24 -36 5 -50 2 -73 -14 -25 -18 -33 -37 -60 -147 -18
-70 -29 -129 -26 -132 3 -3 22 10 43 30 43 41 85 53 105 29 20 -23 27 -48 20
-68 -6 -15 -7 -15 -12 -1 -5 14 -11 14 -51 -5 -58 -28 -68 -56 -51 -140 19
-98 43 -177 52 -177 5 0 15 21 21 46 9 31 20 50 35 57 24 11 30 23 14 29 -5 2
-10 40 -12 85 -3 48 -1 76 4 67 5 -9 10 -45 10 -80 2 -55 6 -67 28 -88 14 -13
34 -26 45 -30 10 -3 34 -29 53 -57 81 -119 217 -204 376 -235 82 -17 95 -17
181 -2 54 9 121 29 158 46 66 31 177 107 175 120 -1 4 -1 16 0 27 1 14 4 16
12 8 9 -9 17 -5 33 15 100 122 145 315 112 472 -14 67 -14 76 -1 86 8 6 15 19
15 28 0 9 18 36 39 59 46 49 58 85 40 119 -24 46 -134 208 -141 208 -5 0 -8
-13 -8 -30 0 -16 4 -30 8 -30 4 0 16 -15 26 -32 l18 -33 -26 28 c-16 17 -26
23 -26 14 0 -26 -40 -67 -67 -67 -24 0 -25 2 -19 38 19 122 20 118 -5 141 -13
12 -70 49 -126 81 -108 62 -123 61 -84 -4 22 -38 12 -89 -20 -107 -27 -14 -35
-3 -43 61 -10 73 -31 86 -160 99 -132 13 -166 14 -166 2z m75 -31 c-3 -5 -12
-7 -20 -3 -21 7 -19 13 6 13 11 0 18 -4 14 -10z m128 -7 c-7 -2 -19 -2 -25 0
-7 3 -2 5 12 5 14 0 19 -2 13 -5z m76 -29 c20 -25 29 -84 14 -84 -5 0 -30 7
-58 15 l-50 14 51 -3 c49 -4 51 -3 46 20 -2 13 -9 22 -15 21 -6 -1 -11 4 -12
11 0 7 -7 17 -15 22 -13 8 -13 10 2 10 9 0 26 -12 37 -26z m249 -53 c60 -37
76 -103 36 -150 -6 -7 -104 81 -99 89 3 5 0 12 -6 16 -8 4 -9 3 -5 -4 12 -19
-10 -14 -28 7 -10 11 -16 26 -13 33 3 8 6 6 6 -5 1 -11 6 -15 13 -11 7 5 8 3
3 -6 -6 -10 -4 -12 8 -7 11 4 24 -2 37 -15 19 -21 20 -21 20 -2 0 15 2 16 9 4
6 -8 8 -17 6 -20 -2 -3 4 -6 14 -6 25 0 24 40 -2 63 -12 11 -39 29 -59 41
l-38 21 -1 -22 c-1 -20 -2 -20 -6 -2 -3 11 -12 29 -22 39 -16 20 25 0 127 -63z
m-547 2 c13 -16 12 -17 -3 -4 -10 7 -18 15 -18 17 0 8 8 3 21 -13z m196 1 c-3
-3 -12 -4 -19 -1 -8 3 -5 6 6 6 11 1 17 -2 13 -5z m363 -54 c0 -5 -2 -10 -4
-10 -3 0 -8 5 -11 10 -3 6 -1 10 4 10 6 0 11 -4 11 -10z m-385 -50 c3 -5 1
-10 -4 -10 -6 0 -11 5 -11 10 0 6 2 10 4 10 3 0 8 -4 11 -10z m540 -74 c-14
-22 -14 -27 2 -62 10 -22 21 -41 24 -44 11 -10 19 -42 9 -38 -6 2 -23 31 -39
64 l-29 62 21 21 c28 27 31 27 12 -3z m76 -28 c8 -15 8 -18 0 -14 -6 4 -16 16
-22 28 -8 15 -8 18 0 14 6 -4 16 -16 22 -28z m27 -53 c15 -32 15 -35 0 -35 -6
0 -8 3 -5 7 4 3 0 17 -8 30 -9 13 -12 23 -7 23 5 0 14 -11 20 -25z m-398 -55
c0 -6 -26 -55 -57 -110 l-57 -100 -57 0 c-55 0 -56 1 -51 25 3 20 0 25 -17 25
-23 0 -28 -19 -8 -39 6 -8 7 -11 1 -8 -13 8 -127 174 -137 200 -6 16 7 17 188
17 127 0 195 -4 195 -10z m400 -10 c0 -11 -12 -27 -26 -36 -22 -15 -27 -15
-35 -3 -11 17 -12 39 -1 24 10 -15 38 -12 34 4 -1 7 2 10 8 6 5 -3 10 1 10 9
0 9 2 16 5 16 3 0 5 -9 5 -20z m-730 -116 l63 -95 -50 -52 c-48 -50 -50 -54
-45 -99 4 -43 7 -48 28 -48 18 0 29 -11 48 -48 l24 -47 73 6 c41 4 127 9 192
11 l117 3 0 -27 c0 -18 -5 -28 -15 -28 -8 0 -15 7 -15 15 0 12 -16 15 -84 15
-65 0 -85 -3 -90 -15 -4 -13 -36 -15 -199 -15 -161 0 -197 3 -207 15 -7 8 -27
15 -45 15 -43 0 -65 9 -65 26 0 11 18 14 76 14 113 0 114 1 114 124 0 96 -1
104 -25 126 -19 18 -25 34 -25 67 l0 43 -70 0 c-56 0 -70 3 -70 15 0 12 14 15
63 15 55 0 67 4 97 30 19 16 38 29 41 30 4 0 35 -43 69 -96z m374 23 c-82 -98
-115 -129 -130 -123 -8 3 -13 9 -11 13 2 5 28 47 57 95 l53 87 29 -20 28 -21
-26 -31z m-534 -75 c0 -18 10 -38 29 -56 28 -27 30 -33 29 -110 0 -44 -5 -87
-10 -93 -6 -8 -35 -13 -74 -13 -55 0 -63 2 -57 17 5 12 2 15 -10 10 -15 -6
-17 4 -17 84 0 70 3 91 15 95 8 4 15 10 15 15 0 5 -7 9 -15 9 -9 0 -15 9 -15
25 0 19 4 23 17 18 12 -5 15 -2 10 10 -5 14 1 17 38 17 43 0 45 -1 45 -28z
m635 -172 c0 -32 -4 -50 -12 -50 -6 0 -13 -17 -15 -37 l-3 -38 -154 0 c-115 0
-155 3 -158 13 -3 6 3 12 12 12 11 0 15 5 12 14 -3 8 -11 32 -18 55 -8 29 -18
41 -31 41 -10 0 -18 2 -18 4 0 2 -3 11 -6 20 -5 14 15 16 192 16 l199 0 0 -50z
m192 -12 c-3 -8 -6 -5 -6 6 -1 11 2 17 5 13 3 -3 4 -12 1 -19z m-832 -198 c4
-6 118 -10 311 -10 264 0 304 -2 304 -15 0 -12 -14 -15 -62 -15 -38 0 -67 -5
-77 -14 -9 -7 -27 -17 -39 -21 -23 -7 -23 -6 -8 17 9 14 13 28 9 31 -3 4 -79
7 -168 7 -166 0 -185 -4 -185 -42 0 -14 -7 -17 -30 -14 -16 2 -30 0 -30 -5 0
-4 -13 -3 -30 2 -31 11 -41 29 -15 29 8 0 15 7 15 15 0 8 -7 15 -15 15 -8 0
-15 7 -15 15 0 17 25 20 35 5z m391 -65 c-15 -14 -24 -30 -21 -35 9 -14 -208
-13 -240 2 -24 11 -33 37 -18 51 3 4 74 7 156 7 l150 0 -27 -25z m224 -21 c0
-8 5 -14 10 -14 6 0 10 -11 10 -25 l0 -25 -104 0 c-120 0 -136 4 -136 34 0 17
5 21 28 20 15 -1 37 4 48 12 21 12 106 23 132 15 6 -2 12 -9 12 -17z m-522
-26 c8 12 15 11 42 -3 27 -14 52 -16 136 -12 57 2 104 0 104 -4 0 -5 -74 -9
-165 -9 -153 0 -165 1 -165 18 0 28 11 34 26 14 11 -14 15 -14 22 -4z m-248
-38 c0 -5 -2 -10 -4 -10 -3 0 -8 5 -11 10 -3 6 -1 10 4 10 6 0 11 -4 11 -10z"/>
<path d="M690 1074 c0 -17 22 -14 28 4 2 7 -3 12 -12 12 -9 0 -16 -7 -16 -16z"/>
<path d="M997 1084 c-8 -8 1 -24 14 -24 5 0 9 7 9 15 0 15 -12 20 -23 9z"/>
<path d="M904 929 c-3 -6 -2 -15 4 -21 13 -13 32 -2 32 18 0 16 -26 19 -36 3z"/>
<path d="M886 762 c-9 -14 24 -103 41 -109 23 -9 24 0 5 50 -20 53 -37 74 -46
59z"/>
<path d="M954 764 c-9 -4 -6 -20 7 -57 10 -28 19 -53 19 -54 0 -2 7 -3 16 -3
12 0 15 6 10 23 -6 26 -35 97 -39 96 -1 0 -7 -3 -13 -5z"/>
<path d="M1010 763 c0 -3 8 -30 17 -60 12 -37 22 -53 34 -53 16 0 16 4 3 46
-8 26 -19 53 -25 60 -12 15 -29 19 -29 7z"/>
<path d="M1136 463 c-11 -11 -6 -23 9 -23 8 0 15 4 15 9 0 13 -16 22 -24 14z"/>
</g>
</svg>
