<?xml version="1.0" standalone="no"?>
<!DOCTYPE svg PUBLIC "-//W3C//DTD SVG 20010904//EN"
 "http://www.w3.org/TR/2001/REC-SVG-20010904/DTD/svg10.dtd">
<svg version="1.0" xmlns="http://www.w3.org/2000/svg"
 width="159.000000pt" height="159.000000pt" viewBox="0 0 159.000000 159.000000"
 preserveAspectRatio="xMidYMid meet">
<metadata>
Created by potrace 1.11, written by Peter Selinger 2001-2013
</metadata>
<g transform="translate(0.000000,159.000000) scale(0.100000,-0.100000)"
fill="#000000" stroke="none">
<path d="M665 1520 c10 -11 22 -17 26 -14 5 3 9 0 9 -6 0 -6 4 -9 9 -6 12 7
23 -19 28 -66 2 -24 0 -38 -7 -38 -6 0 -9 -4 -5 -9 3 -5 1 -12 -4 -15 -10 -7
-41 20 -64 57 -10 15 -32 33 -50 40 -30 13 -39 11 -137 -30 -58 -25 -113 -47
-122 -50 -27 -8 -21 -18 12 -19 40 -2 84 -14 77 -21 -3 -3 0 -12 8 -19 13 -13
14 -78 2 -91 -3 -3 -22 7 -42 22 -63 48 -116 41 -171 -24 -12 -14 -35 -42 -52
-61 -17 -19 -28 -39 -25 -45 4 -5 3 -7 -2 -3 -6 6 -45 -27 -45 -38 0 -4 36 3
63 12 34 12 51 10 68 -6 38 -35 46 -86 14 -83 -11 1 -37 4 -57 6 -37 4 -96
-22 -81 -36 3 -4 2 -7 -4 -7 -10 0 -56 -163 -58 -200 0 -8 -3 -20 -7 -26 -18
-28 9 -21 41 10 46 45 79 51 109 19 26 -28 28 -48 6 -57 -8 -3 -12 -2 -9 4 3
5 -7 3 -22 -5 -15 -8 -33 -15 -39 -15 -7 0 -20 -12 -29 -27 -17 -25 -17 -31
-1 -112 20 -99 24 -116 26 -116 1 0 3 -8 5 -19 8 -40 22 -36 35 8 8 28 22 52
38 62 23 15 27 15 67 -5 24 -12 54 -38 68 -60 34 -51 126 -142 163 -161 16 -8
31 -18 34 -21 12 -13 149 -60 201 -67 149 -22 312 22 442 121 62 47 84 68 55
51 -7 -4 3 8 23 27 55 53 117 174 136 266 11 55 8 179 -6 236 -12 50 -12 59 1
75 8 9 21 32 28 50 7 19 23 40 36 48 35 24 47 69 27 107 -27 54 -122 195 -135
203 -7 4 -10 4 -6 -1 4 -4 3 -16 -2 -26 -6 -11 -6 -20 -1 -24 13 -7 5 -44 -14
-65 -8 -9 -12 -20 -8 -25 5 -4 3 -6 -2 -2 -6 3 -17 2 -25 -3 -17 -11 -49 5
-46 22 1 7 8 30 15 51 17 49 7 100 -22 116 -12 6 -31 17 -42 24 -73 44 -164
97 -169 97 -3 0 -6 -7 -6 -15 0 -8 4 -15 8 -15 16 0 31 -48 25 -77 -3 -15 -6
-33 -6 -40 0 -7 -4 -10 -9 -7 -4 3 -8 0 -8 -6 0 -6 -10 -10 -22 -8 -18 2 -25
13 -33 53 -21 103 -21 103 -259 120 -68 5 -69 5 -51 -15z"/>
</g>
</svg>
